<?xml version="1.0" standalone="no"?>
<!DOCTYPE svg PUBLIC "-//W3C//DTD SVG 20010904//EN"
 "http://www.w3.org/TR/2001/REC-SVG-20010904/DTD/svg10.dtd">
<svg version="1.0" xmlns="http://www.w3.org/2000/svg"
 width="836.000000pt" height="836.000000pt" viewBox="0 0 836.000000 836.000000"
 preserveAspectRatio="xMidYMid meet">
<metadata>
Created by potrace 1.11, written by Peter Selinger 2001-2013
</metadata>
<g transform="translate(0.000000,836.000000) scale(0.100000,-0.100000)"
fill="#000000" stroke="none">
<path d="M6267 8214 c-1 -1 -27 -5 -57 -8 -30 -3 -66 -8 -80 -12 -14 -3 -38
-7 -55 -8 -16 -2 -43 -6 -60 -9 -16 -3 -48 -8 -70 -12 -22 -3 -51 -8 -65 -10
-51 -8 -216 -34 -255 -40 -22 -3 -49 -7 -60 -10 -11 -2 -42 -7 -70 -11 -52 -7
-77 -11 -85 -14 -3 -1 -8 -2 -12 -2 -3 1 -44 -5 -90 -13 -82 -14 -135 -22
-193 -30 -16 -3 -41 -7 -55 -10 -13 -2 -42 -7 -65 -10 -105 -15 -200 -32 -200
-35 0 -1 -16 -3 -35 -5 -66 -5 -143 -17 -164 -24 -12 -5 -30 -7 -40 -5 -11 1
-24 0 -30 -3 -6 -4 -20 -8 -32 -9 -26 -3 -89 -12 -124 -19 -14 -2 -43 -7 -65
-10 -22 -3 -65 -10 -95 -15 -52 -9 -72 -12 -165 -25 -22 -3 -53 -9 -70 -12
-16 -3 -43 -8 -60 -9 -52 -6 -99 -13 -125 -20 -14 -3 -43 -8 -65 -10 -22 -3
-48 -7 -58 -10 -9 -3 -34 -7 -55 -9 -38 -4 -63 -8 -165 -26 -32 -5 -74 -12
-95 -15 -20 -2 -48 -6 -62 -9 -14 -3 -43 -8 -65 -11 -47 -7 -70 -12 -70 -14 0
-1 -18 -3 -40 -5 -37 -3 -70 -8 -135 -20 -14 -3 -43 -7 -65 -10 -38 -5 -71
-10 -125 -20 -14 -3 -43 -7 -65 -11 -22 -3 -51 -7 -65 -10 -14 -2 -45 -7 -70
-9 -25 -3 -52 -7 -60 -10 -8 -2 -31 -7 -50 -9 -66 -9 -105 -16 -130 -21 -14
-3 -43 -7 -65 -10 -22 -2 -50 -6 -61 -9 -12 -2 -39 -7 -60 -10 -22 -4 -68 -11
-104 -17 -36 -6 -78 -12 -95 -14 -16 -2 -43 -6 -60 -9 -16 -3 -46 -8 -65 -11
-19 -3 -60 -10 -90 -15 -30 -5 -77 -12 -105 -16 -27 -3 -59 -8 -70 -10 -11 -3
-36 -7 -55 -10 -19 -2 -46 -7 -60 -10 -14 -3 -41 -7 -60 -10 -19 -2 -78 -11
-130 -20 -52 -8 -115 -17 -138 -19 -24 -3 -48 -8 -54 -11 -5 -4 -24 -7 -41 -9
-57 -4 -107 -17 -107 -27 0 -5 -4 -7 -9 -3 -12 7 -160 -51 -182 -71 -9 -8 -19
-11 -22 -7 -4 3 -7 1 -7 -5 0 -7 -7 -12 -15 -12 -8 0 -15 -4 -15 -10 0 -5 -6
-10 -13 -10 -7 0 -24 -11 -39 -25 -15 -14 -30 -25 -34 -25 -15 0 -144 -142
-138 -152 4 -6 3 -8 -3 -5 -10 6 -53 -44 -53 -63 0 -5 -4 -10 -10 -10 -5 0
-10 -7 -10 -15 0 -8 -5 -15 -11 -15 -5 0 -7 -4 -4 -10 3 -5 2 -10 -2 -10 -6 0
-40 -63 -48 -90 -1 -3 -7 -17 -13 -32 -17 -40 -45 -139 -48 -168 -1 -14 -3
-27 -4 -30 -1 -3 -2 -9 -1 -14 1 -4 -3 -14 -9 -21 -7 -9 -8 -15 -1 -19 7 -5 7
-16 0 -34 -7 -18 -7 -28 0 -30 6 -2 8 -11 3 -20 -6 -14 -8 -76 -2 -92 3 -10 9
-45 16 -95 7 -59 12 -87 29 -195 4 -19 7 -54 8 -77 1 -24 6 -43 11 -43 4 0 6
-6 3 -14 -3 -8 -3 -17 1 -20 3 -4 7 -21 8 -39 0 -17 2 -32 3 -32 3 0 9 -31 16
-80 3 -22 8 -56 11 -75 3 -19 7 -50 8 -67 0 -18 3 -33 6 -33 3 0 7 -17 8 -37
2 -21 5 -45 7 -53 6 -20 17 -99 19 -132 0 -16 4 -28 7 -28 3 0 6 -18 7 -41 1
-22 4 -44 6 -48 3 -4 8 -30 11 -58 3 -27 8 -59 10 -71 3 -12 7 -31 9 -42 3
-11 0 -22 -5 -26 -6 -4 -5 -11 2 -21 7 -8 14 -22 15 -31 1 -10 5 -33 8 -52 3
-19 8 -55 11 -78 4 -24 8 -54 11 -65 2 -12 6 -38 9 -57 6 -51 16 -111 21 -140
3 -14 7 -41 10 -60 2 -19 9 -64 15 -100 6 -36 11 -72 11 -80 1 -8 5 -20 10
-27 5 -7 5 -14 -1 -17 -6 -4 -5 -16 4 -32 7 -15 11 -32 8 -40 -2 -7 -1 -18 3
-25 4 -7 9 -31 11 -53 4 -42 10 -81 13 -81 2 0 4 -14 13 -105 2 -19 7 -46 11
-60 3 -14 8 -41 9 -60 2 -19 6 -41 11 -48 4 -7 2 -12 -6 -12 -8 0 -9 -3 -3 -8
12 -9 17 -27 19 -72 0 -19 4 -37 8 -40 3 -3 9 -30 11 -60 3 -30 8 -66 11 -80
5 -25 12 -73 22 -143 7 -48 12 -72 14 -72 4 0 11 -62 13 -117 1 -31 5 -54 10
-51 6 3 11 -41 10 -84 -1 -7 2 -13 6 -13 4 0 8 -11 9 -26 1 -18 -2 -23 -11
-18 -7 5 -6 1 2 -10 8 -10 16 -25 17 -34 1 -10 5 -42 9 -72 4 -30 11 -56 15
-58 5 -2 5 -14 0 -26 -5 -14 -5 -27 1 -33 5 -5 11 -29 13 -54 4 -40 12 -90 21
-139 3 -15 10 -61 20 -125 1 -5 3 -12 4 -15 1 -3 4 -21 6 -40 7 -54 13 -101
21 -145 3 -22 8 -49 9 -60 2 -11 4 -20 5 -20 1 0 4 -20 6 -45 4 -53 8 -71 15
-85 3 -5 5 -25 5 -42 -1 -18 3 -33 7 -33 5 0 6 -4 3 -8 -3 -4 -1 -26 4 -47 6
-27 5 -44 -2 -53 -9 -10 -8 -12 2 -10 8 2 14 -9 16 -27 4 -46 14 -107 21 -135
3 -14 7 -38 9 -55 1 -16 4 -41 7 -55 2 -14 8 -47 12 -75 4 -27 10 -59 12 -70
2 -11 6 -36 8 -55 8 -68 13 -95 18 -110 3 -8 8 -37 12 -65 3 -27 9 -68 12 -90
3 -22 6 -48 7 -57 0 -10 4 -18 8 -18 4 0 8 -8 8 -19 0 -10 7 -34 15 -54 8 -19
11 -38 7 -42 -4 -5 -2 -5 4 -2 8 4 14 -6 18 -29 4 -19 16 -44 27 -55 10 -10
18 -20 18 -21 -5 -8 14 -48 22 -48 5 0 9 -7 9 -15 0 -8 9 -20 19 -27 16 -10
18 -15 8 -28 -6 -8 -8 -12 -3 -8 4 4 46 -31 91 -78 46 -46 88 -84 94 -84 6 0
11 -5 11 -11 0 -5 3 -8 7 -6 11 6 43 -30 35 -39 -4 -4 -1 -4 6 0 7 4 19 2 27
-4 8 -7 15 -10 15 -6 0 3 9 -2 19 -11 37 -33 46 -40 58 -36 6 2 18 -3 27 -12
8 -9 29 -17 46 -18 16 -1 30 -5 30 -8 0 -5 89 -30 125 -35 11 -1 20 -3 20 -4
0 -3 57 -10 102 -13 24 -1 43 -6 43 -10 0 -5 6 -5 12 0 7 4 33 8 58 10 60 3
95 8 108 17 7 4 12 2 12 -4 0 -6 5 -8 12 -4 13 9 73 20 158 30 30 3 61 11 68
16 8 7 12 7 12 -1 0 -8 5 -9 18 -2 10 5 40 12 67 14 28 3 50 6 50 7 0 3 62 12
97 13 21 1 38 6 38 11 0 5 8 2 17 -5 11 -10 14 -10 9 -1 -5 8 0 12 16 13 28 1
113 14 128 19 3 1 16 3 30 5 14 1 27 3 30 4 3 2 14 4 25 5 11 2 43 6 70 11 28
4 61 9 75 11 63 8 78 11 90 19 9 6 11 4 5 -4 -6 -10 -3 -11 13 -2 11 6 43 12
70 13 28 2 48 6 46 9 -2 4 15 7 39 8 23 0 53 4 67 7 14 4 44 7 67 8 23 0 41 3
41 6 -1 18 4 21 16 11 10 -9 16 -9 21 -1 5 8 11 7 23 -2 13 -11 14 -11 8 0 -6
10 -1 13 20 11 16 -2 40 3 53 10 17 9 21 10 16 1 -6 -9 -3 -9 12 -2 10 6 39
12 63 14 25 2 50 7 56 11 6 3 21 5 33 2 11 -2 21 -1 21 3 0 4 16 7 35 7 19 -1
35 2 35 7 0 4 10 6 22 5 12 -2 50 2 85 9 35 8 77 15 94 16 17 1 33 6 35 10 3
4 16 3 30 -2 17 -7 23 -7 19 0 -6 9 22 14 78 13 9 0 17 3 17 7 0 3 10 6 23 7
23 0 84 9 127 17 68 14 146 23 153 19 4 -2 7 0 7 5 0 6 10 10 23 9 12 0 42 3
67 7 25 4 59 9 75 11 17 2 30 4 30 5 0 2 16 4 89 14 27 3 52 8 54 11 3 3 12
-1 20 -8 9 -6 13 -7 9 -1 -7 11 149 41 160 30 3 -3 12 -1 20 6 8 6 31 12 51
13 20 2 46 6 56 10 15 7 17 5 11 -6 -7 -11 -4 -11 11 1 21 17 42 19 63 6 10
-6 12 -5 7 2 -6 10 18 17 37 11 1 0 14 4 30 10 20 8 27 7 27 -2 0 -7 3 -8 8
-2 4 6 12 11 17 11 6 1 22 4 37 8 20 5 28 2 31 -11 4 -17 5 -17 6 0 0 9 7 17
14 18 6 0 23 3 37 6 14 2 32 6 40 8 8 1 21 -3 29 -9 11 -8 13 -8 8 0 -4 7 0
14 8 18 8 3 15 0 15 -6 0 -7 4 -7 13 0 10 8 65 18 157 27 39 4 54 9 62 20 5 6
8 5 8 -4 0 -9 4 -10 13 -4 6 5 26 10 42 12 17 2 38 7 47 12 11 6 19 5 23 -1 5
-8 11 -8 19 -1 9 7 17 7 26 -2 10 -9 11 -9 6 0 -5 9 0 13 13 13 30 0 34 1 52
11 9 5 20 4 26 -2 8 -8 13 -7 17 0 4 6 20 11 35 11 15 0 31 3 34 7 4 3 24 8
44 9 45 3 99 11 133 18 23 6 84 14 151 20 14 2 31 6 37 10 7 4 12 5 12 1 0 -3
10 -1 21 6 17 9 20 8 14 -2 -6 -8 -4 -10 6 -3 18 11 37 15 71 15 15 0 30 4 33
9 3 5 16 5 31 0 18 -7 23 -7 18 1 -5 8 4 10 29 7 20 -2 33 0 30 5 -3 5 5 8 18
7 13 -1 26 -1 29 0 14 5 58 12 78 13 12 1 22 4 22 7 0 3 22 6 48 6 27 0 53 3
58 6 9 6 67 17 119 23 42 5 62 10 130 35 33 12 66 22 73 23 6 0 12 3 12 7 0 4
18 12 40 19 22 6 40 16 40 21 0 6 6 10 14 10 8 0 16 5 18 11 2 6 15 12 29 12
16 1 26 8 25 17 -1 8 7 14 16 14 10 -1 16 1 13 5 -2 4 5 15 16 24 10 9 19 14
19 11 0 -4 9 5 21 20 11 14 26 23 32 19 7 -3 9 -3 5 1 -3 4 9 24 28 44 19 20
34 40 34 45 0 4 5 5 10 2 6 -3 10 2 10 12 0 10 9 25 20 33 11 8 20 20 20 28 0
8 5 10 13 6 6 -4 9 -4 5 0 -3 4 9 35 27 70 33 63 85 195 90 231 1 11 8 55 15
99 13 87 8 225 -14 346 -7 41 -12 78 -9 83 2 4 0 7 -4 7 -5 0 -8 18 -8 41 0
22 -3 43 -7 45 -4 3 -5 11 -1 19 3 8 1 15 -4 15 -5 0 -8 14 -7 30 1 17 -2 33
-7 36 -6 3 -5 11 2 20 6 8 7 14 2 14 -6 0 -10 12 -11 27 -2 34 -9 70 -17 83
-3 6 -1 10 6 10 9 0 9 3 0 14 -6 8 -13 33 -15 57 -2 24 -5 44 -6 44 -3 0 -9
38 -14 85 -3 25 -5 45 -6 45 -1 0 -3 14 -5 30 -2 17 -6 39 -9 50 -3 11 -8 43
-11 70 -4 28 -8 61 -11 75 -2 14 -7 45 -10 70 -3 25 -8 52 -11 60 -4 8 -6 18
-5 21 1 4 -3 31 -9 60 -12 66 -22 147 -23 177 -1 12 -3 22 -7 22 -3 0 -6 19
-8 42 -1 23 -4 44 -6 48 -3 5 -17 99 -18 128 0 6 -3 12 -7 12 -4 0 -6 10 -5
22 1 12 -2 43 -7 68 -5 25 -11 61 -14 80 -3 19 -7 49 -10 65 -2 17 -6 44 -9
60 -3 17 -7 48 -10 70 -3 22 -8 58 -11 80 -3 22 -6 46 -6 53 -1 6 -4 12 -8 12
-3 0 -6 10 -7 23 -1 35 -17 149 -29 209 -5 25 -8 43 -19 123 -2 17 -7 44 -9
60 -3 17 -7 44 -9 61 -3 18 -8 37 -12 43 -3 7 -1 19 7 28 7 9 8 14 2 10 -11
-7 -20 29 -30 118 -2 22 -7 51 -11 65 -3 14 -7 37 -8 53 -2 15 -4 28 -5 30 -1
1 -4 16 -5 32 -7 64 -16 119 -21 127 -3 5 -8 30 -11 56 -9 84 -12 107 -13 107
-3 0 -8 42 -14 95 -2 25 -7 53 -11 62 -4 9 -4 21 -1 27 4 5 1 13 -5 16 -5 4
-8 13 -5 21 3 7 1 16 -5 19 -5 4 -7 9 -5 13 2 4 0 27 -5 52 -5 25 -11 64 -12
87 -1 23 -5 45 -9 48 -4 4 -4 13 -2 20 3 7 1 16 -5 19 -6 4 -8 12 -5 20 3 7 0
25 -5 39 -7 18 -7 27 0 27 6 0 6 6 0 19 -10 18 -24 101 -25 149 -1 12 -3 22
-6 22 -3 0 -6 12 -7 28 -2 28 -10 82 -17 117 -2 11 -7 43 -10 70 -4 28 -10 59
-13 70 -4 11 -8 34 -9 50 -6 54 -20 155 -24 165 -1 3 -2 9 -1 14 1 5 -1 16 -5
25 -3 9 -8 32 -10 51 -2 19 -5 44 -7 55 -2 11 -7 47 -12 80 -8 65 -12 89 -15
93 -2 1 -4 16 -5 32 -1 17 -3 31 -5 33 -3 4 -7 26 -26 167 -3 19 -7 46 -10 60
-3 14 -8 39 -11 55 -3 17 -9 38 -14 48 -5 9 -7 17 -5 17 9 0 -46 144 -65 172
-11 14 -19 30 -19 35 0 31 -185 253 -210 253 -6 0 -10 4 -10 9 0 12 -106 84
-185 124 -73 37 -178 74 -230 81 -16 2 -37 6 -45 9 -8 3 -22 6 -30 6 -8 0 -54
2 -103 4 -48 2 -88 3 -90 1z"/>
<path d="M7473 1167 c0 -8 6 -14 14 -14 9 0 10 4 2 14 -6 7 -12 13 -14 13 -1
0 -2 -6 -2 -13z"/>
<path d="M7553 1155 c0 -8 4 -12 9 -9 5 3 6 10 3 15 -9 13 -12 11 -12 -6z"/>
<path d="M7070 961 c0 -6 4 -13 10 -16 6 -3 7 1 4 9 -7 18 -14 21 -14 7z"/>
<path d="M5690 840 c0 -5 5 -10 11 -10 5 0 7 5 4 10 -3 6 -8 10 -11 10 -2 0
-4 -4 -4 -10z"/>
<path d="M4275 649 c-4 -6 -5 -12 -2 -15 2 -3 7 2 10 11 7 17 1 20 -8 4z"/>
<path d="M1386 522 c-3 -5 1 -9 9 -9 8 0 12 4 9 9 -3 4 -7 8 -9 8 -2 0 -6 -4
-9 -8z"/>
<path d="M3067 479 c7 -7 15 -10 18 -7 3 3 -2 9 -12 12 -14 6 -15 5 -6 -5z"/>
<path d="M2993 445 c0 -8 4 -15 9 -15 4 0 8 4 8 9 0 6 -4 12 -8 15 -5 3 -9 -1
-9 -9z"/>
<path d="M2394 326 c1 -8 5 -18 8 -22 4 -3 5 1 4 10 -1 8 -5 18 -8 22 -4 3 -5
-1 -4 -10z"/>
<path d="M1953 205 c0 -8 4 -12 9 -9 5 3 6 10 3 15 -9 13 -12 11 -12 -6z"/>
</g>
</svg>
